<svg data-v-0dd9719b="" version="1.0" xmlns="http://www.w3.org/2000/svg" xmlns:xlink="http://www.w3.org/1999/xlink" width="100%" height="100%" viewBox="0 0 340.000000 250.000000" preserveAspectRatio="xMidYMid meet" color-interpolation-filters="sRGB" style="margin: auto;"> <rect data-v-0dd9719b="" x="0" y="0" width="100%" height="100%" fill="#fff" fill-opacity="1" class="background"></rect> <rect data-v-0dd9719b="" x="0" y="0" width="100%" height="100%" fill="url(#watermark)" fill-opacity="1" class="watermarklayer"></rect> <g data-v-0dd9719b="" fill="#f29716" class="icon-text-wrapper icon-svg-group iconsvg" transform="translate(45.31000518798828,90.30107116699219)"><g class="iconsvg-imagesvg" transform="translate(0,0)"><g><rect fill="#f29716" fill-opacity="0" stroke-width="2" x="0" y="0" width="59.99999999999999" height="69.3978579194522" class="image-rect"></rect> <svg x="0" y="0" width="59.99999999999999" height="69.3978579194522" filtersec="colorsb7951627138" class="image-svg-svg primary" style="overflow: visible;"><svg version="1.1" id="图层_1" xmlns="http://www.w3.org/2000/svg" xmlns:xlink="http://www.w3.org/1999/xlink" x="0px" y="0px" viewBox="3.5199999809265137 0 102.9800033569336 119.11000061035156" enable-background="new 0 0 109 120" xml:space="preserve">
<polygon fill="#F29716" points="3.52,31.23 3.52,89.38 55.01,119.11 "></polygon>
<polygon fill="#FBDF5E" points="55.01,87.88 55.01,29.73 3.52,0 "></polygon>
<polygon fill="#00579D" points="55.01,87.01 55.01,30.64 106.5,1.83 "></polygon>
<polygon fill="#66BC8B" points="106.5,32.1 106.5,88.46 55.01,117.28 "></polygon>
</svg></svg> <!----></g></g> <g transform="translate(67,20.54892921447754)"><g data-gra="path-name" fill-rule="" class="tp-name iconsvg-namesvg"><g transform="scale(1)"><g><path d="M14.65 2.92Q13.28 2.92 11.55 2.31 9.82 1.71 7.14 0.57L7.14 0.57 5.53-0.13Q3.72 1.78 1.64 1.78L1.64 1.78Q0.54 1.78-0.34 1.27-1.21 0.77-1.68 0.05-2.15-0.67-2.15-1.34L-2.15-1.34Q-2.15-2.08-1.49-2.55-0.84-3.02 0.6-3.02L0.6-3.02Q2.25-3.02 4.83-2.35L4.83-2.35Q5.6-3.76 6.32-5.7 7.04-7.65 7.98-10.63L7.98-10.63 8.82-13.21Q7.18-13.75 6.25-14.75 5.33-15.76 5.33-16.87L5.33-16.87Q5.33-17.94 6.12-18.85 6.91-19.75 8.15-19.75L8.15-19.75Q7.48-18.88 7.48-17.47L7.48-17.47Q7.48-16.43 7.96-15.64 8.45-14.85 9.22-14.39L9.22-14.39Q10.73-18.95 12.44-21.54 14.15-24.14 16.63-24.14L16.63-24.14Q18.04-24.14 19.2-23.29 20.35-22.43 20.35-20.52L20.35-20.52Q20.35-18.81 19.4-17.02 18.44-15.22 16.43-13.98 14.42-12.74 11.43-12.74L11.43-12.74Q10.23-9.09 9.15-6.4 8.08-3.72 6.84-1.81L6.84-1.81Q9.86-0.91 11.99-0.39 14.12 0.13 15.73 0.13L15.73 0.13Q16.5 0.13 17.19-0.03 17.87-0.2 18.68-0.6L18.68-0.6Q18.01 1.24 17.03 2.08 16.06 2.92 14.65 2.92L14.65 2.92ZM11.8-13.85Q13.61-13.98 15.02-15.27 16.43-16.56 17.22-18.29 18.01-20.02 18.01-21.33L18.01-21.33Q18.01-22.84 16.9-22.84L16.9-22.84Q15.56-22.84 14.42-20.57 13.28-18.31 11.8-13.85L11.8-13.85ZM1.31 0.54Q2.08 0.54 2.6 0.22 3.12-0.1 3.79-0.8L3.79-0.8Q1.41-1.68 0.27-1.68L0.27-1.68Q-0.34-1.68-0.64-1.46-0.94-1.24-0.94-0.87L-0.94-0.87Q-0.94-0.3-0.27 0.12 0.4 0.54 1.31 0.54L1.31 0.54ZM22 2.92Q20.45 2.11 20.45 0.84L20.45 0.84Q20.45-0.44 21.8-3.1 23.14-5.77 25.38-9.22L25.38-9.22Q23.37-9.36 20.45-9.36L20.45-9.36Q21.26-11.54 24.34-11.54L24.34-11.54Q25.01-11.54 26.83-11.33L26.83-11.33Q30.58-16.77 33.83-20.49 37.09-24.21 38.16-24.21L38.16-24.21Q39.03-24.21 40.44-22.9L40.44-22.9Q39.77-22.4 38.48-18.73 37.19-15.06 36.2-10.68 35.21-6.3 35.21-3.62L35.21-3.62Q35.21-2.28 35.49-1.63 35.78-0.97 36.38-0.97L36.38-0.97Q37.22-0.97 38.36-2.2 39.5-3.42 40.84-5.97L40.84-5.97 41.45-5.33Q40.37-2.48 38.7-0.75 37.02 0.97 35.21 0.97L35.21 0.97Q33.67 0.97 32.96-0.37 32.26-1.71 32.26-4.23L32.26-4.23Q32.26-5.87 32.69-8.38L32.69-8.38Q30.98-8.65 27.9-9.02L27.9-9.02Q24.78-3.49 22 2.92L22 2.92ZM33.03-10.03Q33.63-12.84 34.61-15.86 35.58-18.88 36.58-21.26L36.58-21.26Q35.11-20.09 33.13-17.37 31.15-14.65 28.97-10.93L28.97-10.93 31.49-10.39Q32.49-10.13 33.03-10.03L33.03-10.03ZM59.42 2.92Q58.18 2.92 56.32 0.94 54.46-1.04 52.56-3.87 50.67-6.71 49.36-9.22L49.36-9.22 46.31 0.64Q45.97 1.71 45.03 2.01 44.09 2.31 42.69 2.31L42.69 2.31Q43.29 1.01 43.88-0.57 44.46-2.15 45.64-5.63L45.64-5.63Q48.82-14.96 50.9-20.66L50.9-20.66Q50.94-20.76 51.12-21.23 51.3-21.7 51.3-22.1L51.3-22.1Q51.3-22.73 50.63-22.73L50.63-22.73Q49.66-22.73 48.72-21.75 47.78-20.76 47.21-19.36 46.64-17.97 46.64-16.97L46.64-16.97Q46.64-16.2 46.98-15.42L46.98-15.42Q45.6-15.42 44.95-16.01 44.3-16.6 44.3-17.6L44.3-17.6Q44.3-19.05 45.47-20.57 46.64-22.1 48.32-23.12 50-24.14 51.37-24.14L51.37-24.14Q53.22-24.14 53.22-22.2L53.22-22.2Q53.22-21.56 52.98-20.86L52.98-20.86 50.5-12.81Q50.9-13.04 52.81-14.52L52.81-14.52Q55.66-16.73 58.13-19.26 60.59-21.8 62.2-24.24L62.2-24.24Q62.57-23.91 62.72-23.39 62.87-22.87 62.87-22.43L62.87-22.43Q62.87-20.15 59.1-16.98 55.33-13.82 50.5-10.73L50.5-10.73Q52.28-7.98 53.53-6.27 54.79-4.56 56.7-2.63 58.61-0.7 61.5 1.51L61.5 1.51Q61.2 2.08 60.59 2.5 59.99 2.92 59.42 2.92L59.42 2.92ZM68.57 2.92Q66.49 2.92 64.85 2.08 63.21 1.24 62.32-0.2 61.43-1.64 61.43-3.39L61.43-3.39Q61.43-5.37 62.55-7.23 63.68-9.09 65.62-10.39 67.57-11.7 69.98-12.04L69.98-12.04Q68.81-13.08 68.19-14.39 67.57-15.69 67.57-17.1L67.57-17.1Q67.57-18.88 68.49-20.5 69.41-22.13 71.07-23.12 72.73-24.11 74.84-24.11L74.84-24.11Q76.89-24.11 78-23.12 79.1-22.13 79.1-20.25L79.1-20.25Q79.1-19.01 78.65-17.81 78.2-16.6 77.51-15.84 76.82-15.09 76.22-15.09L76.22-15.09Q75.38-15.09 74.61-16.46L74.61-16.46Q77.56-18.88 77.56-20.96L77.56-20.96Q77.56-21.93 76.91-22.47 76.25-23 75.15-23L75.15-23Q73.7-23 72.66-22.11 71.62-21.23 71.09-19.8 70.55-18.38 70.55-16.8L70.55-16.8Q70.55-15.22 71.14-13.8 71.73-12.37 73.03-11.37L73.03-11.37Q70.69-11 68.89-9.74 67.1-8.48 66.11-6.76 65.12-5.03 65.12-3.32L65.12-3.32Q65.12-2.18 65.57-1.11 66.02-0.03 67 0.69 67.97 1.41 69.48 1.41L69.48 1.41Q71.26 1.41 73.05 0.4 74.84-0.6 76.35-2.28 77.86-3.96 78.77-5.87L78.77-5.87 79.67-5.3Q77.69-1.58 74.84 0.67 71.99 2.92 68.57 2.92L68.57 2.92ZM87.25 2.92Q85.2 2.92 83.46 2.23 81.72 1.54 80.64 0.15 79.57-1.24 79.57-3.22L79.57-3.22Q79.57-5.7 81.11-6.79 82.66-7.88 84.74-7.88L84.74-7.88Q83.66-6.77 83.11-5.57 82.56-4.36 82.56-3.22L82.56-3.22Q82.56-1.41 83.95-0.13 85.34 1.14 87.82 1.14L87.82 1.14Q89.4 1.14 90.82 0.62 92.25 0.1 93.14-0.94 94.02-1.98 94.02-3.39L94.02-3.39Q94.02-4.63 93.32-5.6 92.62-6.57 91.59-7.28 90.57-7.98 88.83-8.92L88.83-8.92Q86.98-9.93 85.84-10.7 84.7-11.47 83.93-12.59 83.16-13.71 83.16-15.19L83.16-15.19Q83.16-17.1 84.4-19.21 85.64-21.33 87.89-22.73 90.13-24.14 92.92-24.14L92.92-24.14Q97.11-24.14 97.11-20.62L97.11-20.62Q97.11-18.91 96.29-16.82 95.47-14.72 94.43-13.11L94.43-13.11Q92.95-13.41 92.95-14.82L92.95-14.82Q92.95-15.46 93.2-16.28 93.45-17.1 93.92-18.24L93.92-18.24Q94.39-19.52 94.63-20.25 94.86-20.99 94.86-21.59L94.86-21.59Q94.86-22.23 94.48-22.55 94.09-22.87 93.08-22.87L93.08-22.87Q91.07-22.87 89.4-21.73 87.72-20.59 86.73-18.96 85.74-17.34 85.74-15.96L85.74-15.96Q85.74-14.96 86.35-14.15 86.95-13.35 87.87-12.76 88.79-12.17 90.37-11.33L90.37-11.33Q92.35-10.26 93.54-9.46 94.73-8.65 95.58-7.38 96.44-6.1 96.44-4.33L96.44-4.33Q96.44-2.11 95.11-0.47 93.79 1.17 91.66 2.05 89.53 2.92 87.25 2.92L87.25 2.92ZM97.85 2.92Q98.25 1.71 101.74-5.63L101.74-5.63Q106.87-16.77 108.61-20.59L108.61-20.59Q108.91-21.26 108.91-21.7L108.91-21.7Q108.91-22.43 107.94-22.43L107.94-22.43Q106.63-22.43 105.73-21.61 104.82-20.79 104.37-19.55 103.92-18.31 103.92-17.03L103.92-17.03Q103.92-16.33 104.05-15.42L104.05-15.42Q102.94-15.42 102.31-16.38 101.67-17.34 101.67-18.48L101.67-18.48Q101.67-19.85 102.71-21.18 103.75-22.5 105.37-23.32 107-24.14 108.58-24.14L108.58-24.14Q109.88-24.14 110.74-23.42 111.59-22.7 112.05-20.89 112.5-19.08 112.5-15.83L112.5-15.83Q112.5-13.48 112.13-8.55L112.13-8.55Q111.86-4.93 111.86-3.92L111.86-3.92Q112.87-6.94 114.71-10.66 116.56-14.39 118.38-17.55 120.21-20.72 121.25-22.27L121.25-22.27Q121.79-23.1 122.16-23.42 122.53-23.74 123.1-23.74L123.1-23.74Q123.57-23.74 124.57-23.37L124.57-23.37Q123.9-21.93 122.83-17.5 121.75-13.08 120.97-8.2 120.18-3.32 120.18-0.34L120.18-0.34Q120.18 0.7 120.28 1.21 120.38 1.71 120.56 2.2 120.75 2.68 120.85 2.92L120.85 2.92Q119.41 2.92 118.67 2.5 117.93 2.08 117.66 1.16 117.4 0.23 117.4-1.44L117.4-1.44Q117.4-4.8 118.12-8.55 118.84-12.31 120.25-17.74L120.25-17.74Q118.13-14.72 115.62-9.19 113.1-3.65 111.9-0.1L111.9-0.1 111.66-0.03Q111.43 0.07 111.19 0.07L111.19 0.07Q110.09 0.07 109.73-1.21 109.38-2.48 109.38-5.26L109.38-5.26Q109.38-6.97 109.52-11L109.52-11Q109.65-15.22 109.65-17.17L109.65-17.17 109.62-19.15 106.16-11.03Q103.68-5.13 102.46-2.46 101.23 0.2 100.14 1.56 99.05 2.92 97.85 2.92L97.85 2.92ZM131.45 2.92Q129.37 2.92 127.72 2.08 126.08 1.24 125.19-0.2 124.3-1.64 124.3-3.39L124.3-3.39Q124.3-5.37 125.43-7.23 126.55-9.09 128.49-10.39 130.44-11.7 132.85-12.04L132.85-12.04Q131.68-13.08 131.06-14.39 130.44-15.69 130.44-17.1L130.44-17.1Q130.44-18.88 131.36-20.5 132.28-22.13 133.94-23.12 135.6-24.11 137.72-24.11L137.72-24.11Q139.76-24.11 140.87-23.12 141.97-22.13 141.97-20.25L141.97-20.25Q141.97-19.01 141.52-17.81 141.07-16.6 140.38-15.84 139.69-15.09 139.09-15.09L139.09-15.09Q138.25-15.09 137.48-16.46L137.48-16.46Q140.43-18.88 140.43-20.96L140.43-20.96Q140.43-21.93 139.78-22.47 139.12-23 138.02-23L138.02-23Q136.58-23 135.54-22.11 134.5-21.23 133.96-19.8 133.42-18.38 133.42-16.8L133.42-16.8Q133.42-15.22 134.01-13.8 134.6-12.37 135.91-11.37L135.91-11.37Q133.56-11 131.76-9.74 129.97-8.48 128.98-6.76 127.99-5.03 127.99-3.32L127.99-3.32Q127.99-2.18 128.44-1.11 128.9-0.03 129.87 0.69 130.84 1.41 132.35 1.41L132.35 1.41Q134.13 1.41 135.92 0.4 137.72-0.6 139.23-2.28 140.73-3.96 141.64-5.87L141.64-5.87 142.54-5.3Q140.57-1.58 137.72 0.67 134.87 2.92 131.45 2.92L131.45 2.92ZM159.24 4.06Q158 4.06 156.16 1.96 154.31-0.13 152.47-3.08 150.63-6.04 149.32-8.68L149.32-8.68Q148.71-6.61 147.31-1.58L147.31-1.58 146.03 2.95Q144.99 2.95 144.17 2.4 143.35 1.84 143.35 1.01L143.35 1.01Q143.35 0.6 143.55-0.03 143.75-0.67 143.82-0.84L143.82-0.84Q146.4-8.68 147.86-12.62 149.32-16.56 152.03-22.77L152.03-22.77Q150.22-22.4 148.21-21.33L148.21-21.33Q148.01-21.26 147.71-21.11 147.41-20.96 147.27-20.96L147.27-20.96Q146.97-20.96 146.45-21.43 145.93-21.9 145.93-22.27L145.93-22.27Q147.94-23.07 149.92-23.61 151.9-24.14 154.01-24.14L154.01-24.14Q156.23-24.14 158.32-23.46 160.42-22.77 161.79-21.31 163.17-19.85 163.17-17.67L163.17-17.67Q163.17-14.79 160.87-13.18 158.57-11.57 155.71-11 152.84-10.43 150.46-10.36L150.46-10.36 151.33-8.99Q152.94-6.4 154.15-4.69 155.35-2.98 157.11-1.12 158.87 0.74 161.29 2.58L161.29 2.58Q161.15 3.22 160.5 3.64 159.85 4.06 159.24 4.06L159.24 4.06ZM150.09-11.37Q154.35-11.67 157.37-13.43 160.38-15.19 160.38-18.34L160.38-18.34Q160.38-20.72 158.67-21.81 156.96-22.9 154.38-22.97L154.38-22.97Q152.5-19.21 150.09-11.37L150.09-11.37ZM169.14 2.92Q167.06 2.92 165.41 2.08 163.77 1.24 162.88-0.2 161.99-1.64 161.99-3.39L161.99-3.39Q161.99-5.37 163.12-7.23 164.24-9.09 166.18-10.39 168.13-11.7 170.54-12.04L170.54-12.04Q169.37-13.08 168.75-14.39 168.13-15.69 168.13-17.1L168.13-17.1Q168.13-18.88 169.05-20.5 169.97-22.13 171.63-23.12 173.29-24.11 175.41-24.11L175.41-24.11Q177.45-24.11 178.56-23.12 179.66-22.13 179.66-20.25L179.66-20.25Q179.66-19.01 179.21-17.81 178.76-16.6 178.07-15.84 177.38-15.09 176.78-15.09L176.78-15.09Q175.94-15.09 175.17-16.46L175.17-16.46Q178.12-18.88 178.12-20.96L178.12-20.96Q178.12-21.93 177.47-22.47 176.81-23 175.71-23L175.71-23Q174.27-23 173.23-22.11 172.19-21.23 171.65-19.8 171.11-18.38 171.11-16.8L171.11-16.8Q171.11-15.22 171.7-13.8 172.29-12.37 173.6-11.37L173.6-11.37Q171.25-11 169.45-9.74 167.66-8.48 166.67-6.76 165.68-5.03 165.68-3.32L165.68-3.32Q165.68-2.18 166.13-1.11 166.59-0.03 167.56 0.69 168.53 1.41 170.04 1.41L170.04 1.41Q171.82 1.41 173.61 0.4 175.41-0.6 176.92-2.28 178.42-3.96 179.33-5.87L179.33-5.87 180.23-5.3Q178.26-1.58 175.41 0.67 172.56 2.92 169.14 2.92L169.14 2.92Z" transform="translate(2.1500000953674316, 24.239999771118164)"></path></g> <!----> <!----> <!----> <!----> <!----> <!----> <!----></g></g> <!----></g></g><defs v-gra="od"></defs></svg>